<svg xmlns="http://www.w3.org/2000/svg" xmlns:xlink="http://www.w3.org/1999/xlink" version="1.1" width="109" height="102" enable-background="new 71.07 323.663 469.86 110.329" xml:space="preserve" style=""><rect id="backgroundrect" width="100%" height="100%" x="0" y="0" fill="none" stroke="none" class="" style=""/>














<g class="currentLayer" style=""><title>Layer 1</title><path fill="#2C2255" d="M30.054004119873042,65.21100152587888 H13.310004119873042 c2.217,7.605 6.331,14.422 12.354,20.445 c9.602,9.604 21.148,14.398 34.65,14.398 c2.6990000000000007,0 5.314,-0.201 7.854,-0.5840000000000006 c10.17,-1.5350000000000001 19.074,-6.133 26.703,-13.814 c6.062,-6.021 10.205,-12.84 12.439,-20.445 h-6.795 h-9.936 H30.054004119873042 z" id="svg_1" class=""/><g id="svg_2" class="">
	<path fill="#2C2255" d="M20.821004119873052,42.46900152587892 h-8.747 c-0.3200000000000004,1.9220000000000002 -0.538,3.8840000000000003 -0.6370000000000008,5.896 h10.396 h5.215 h75.275 h6.871 c-0.1,-2.012 -0.31800000000000034,-3.974 -0.6410000000000008,-5.896 " id="svg_3"/>
	<path fill="#2C2255" d="M11.437004119873052,53.840001525878904 c0.09900000000000017,2.013 0.31600000000000034,3.975 0.6370000000000008,5.896 h9.094 h6.893 h73.648 h6.846 c0.3220000000000004,-1.921 0.542,-3.883 0.6420000000000008,-5.896 " id="svg_4"/>
</g><path fill="#2C2255" d="M107.31200411987305,36.993001525878924 c-2.232,-7.626 -6.376,-14.474 -12.441,-20.54 c-7.609,-7.6080000000000005 -16.488,-12.174 -26.625,-13.71 c-2.564,-0.3890000000000004 -5.205,-0.5930000000000006 -7.932,-0.5930000000000006 c-13.502,0 -25.049,4.769 -34.65,14.303 c-6.025,6.066 -10.141,12.914 -12.357,20.54 " id="svg_5" class=""/><g id="svg_6" class="">
	<path fill="#F7941E" d="M8.530004119873041,51.104001525878914 c0,-25.824 19.395,-47.281 44.626,-51.055 c-0.6260000000000007,-0.02300000000000004 -1.255,-0.04900000000000005 -1.887,-0.04900000000000005 c-28.314,0 -51.269,22.881 -51.269,51.104 c0,28.224 22.954,51.103 51.269,51.103 c0.6340000000000008,0 1.263,-0.02300000000000004 1.891,-0.04700000000000004 C27.92500411987305,98.3860015258789 8.530004119873041,76.9290015258789 8.530004119873041,51.104001525878914 z" id="svg_7"/>
</g><g id="svg_16" class="">
	
		<linearGradient id="SVGID_1_" x1="0.49998939037323" y1="10.894055366516113" x2="0.49998939037323" y2="-1.594912052154541" transform="translate(0.000003814697265625,-4.062004089355469) translate(-0.000003814697265625,0) translate(0.000003814697265625,0) translate(-0.000003814697265625,0) translate(-0.000003814697265625,0) translate(-71.06999206542969,-323.6629943847656) ">
		<stop offset="0.3033" style="stop-color:#473788"/>
		<stop offset="0.872" style="stop-color:#2C2255"/>
	</linearGradient>
	<path fill="url(#SVGID_1_)" d="M93.58300411987304,48.364001525878905 c-0.16400000000000023,-2.021 -0.504,-3.992 -1.012,-5.896 h-64.51 c-0.508,1.9020000000000001 -0.8490000000000006,3.874 -1.013,5.896 H93.58300411987304 z" id="svg_17"/>
	
		<linearGradient id="SVGID_2_" x1="0.4999956488609314" y1="8.96545696258545" x2="0.4999956488609314" y2="-3.523510694503784" transform="translate(0.000003814697265625,-4.062004089355469) translate(-0.000003814697265625,0) translate(0.000003814697265625,0) translate(-0.000003814697265625,0) translate(-0.000003814697265625,0) translate(-71.06999206542969,-323.6629943847656) ">
		<stop offset="0.3033" style="stop-color:#473788"/>
		<stop offset="0.872" style="stop-color:#2C2255"/>
	</linearGradient>
	<path fill="url(#SVGID_2_)" d="M93.58300411987304,53.840001525878904 H27.049004119873047 c0.16400000000000023,2.021 0.503,3.991 1.012,5.896 h64.511 C93.08000411987305,57.83200152587892 93.41900411987305,55.86100152587892 93.58300411987304,53.840001525878904 z" id="svg_18"/>
	
		<linearGradient id="SVGID_3_" x1="0.4999952018260956" y1="2.151671886444092" x2="0.4999952018260956" y2="-1.6670864820480347" transform="translate(0.000003814697265625,-4.062004089355469) translate(-0.000003814697265625,0) translate(0.000003814697265625,0) translate(-0.000003814697265625,0) translate(-0.000003814697265625,0) translate(-71.06999206542969,-323.6629943847656) ">
		<stop offset="0.3033" style="stop-color:#473788"/>
		<stop offset="0.8631" style="stop-color:#2C2255"/>
	</linearGradient>
	<path fill="url(#SVGID_3_)" d="M60.31600411987304,84.49200152587889 c13.397,0 24.945,-7.893 30.263,-19.281 h-60.526 C35.37100411987305,76.59900152587892 46.91900411987305,84.49200152587889 60.31600411987304,84.49200152587889 z" id="svg_19"/>
</g><g id="svg_20" class="">
	<path fill="#FFFFFF" d="M22.11800411987305,53.840001525878904 h4.884 h66.706 h8.763 h6.657 c0.046000000000000076,-0.8710000000000007 0.07200000000000002,-1.7480000000000002 0.07200000000000002,-2.632 c0,-0.9550000000000006 -0.035,-1.901 -0.08900000000000012,-2.845 h-6.641 h-8.763 H27.001004119873045 h-5.229 H11.437004119873052 c-0.054000000000000076,0.9420000000000006 -0.08900000000000012,1.8900000000000001 -0.08900000000000012,2.845 c0,0.8840000000000008 0.02600000000000004,1.7610000000000001 0.07200000000000002,2.632 H22.11800411987305 z" id="svg_21"/>
	<path fill="#FFFFFF" d="M29.858004119873044,36.993001525878924 H13.306004119873052 c-0.544,1.783 -0.8950000000000008,3.612 -1.232,5.477 h8.525 h7.259 h64.679 h9.16 h6.547 c-0.33800000000000047,-1.863 -0.773,-3.692 -1.316,-5.477 " id="svg_22"/>
	<path fill="#FFFFFF" d="M101.95600411987306,59.735001525878886 h-9.16 H28.11800411987305 h-6.912 h-9.133 c0.3280000000000004,1.863 0.7010000000000006,3.6910000000000007 1.236,5.476 h16.807 h60.682 h9.962 h6.488 c0.534,-1.783 0.9650000000000006,-3.611 1.294,-5.476 H101.95600411987306 z" id="svg_23"/>
</g></g></svg>