<svg xmlns="http://www.w3.org/2000/svg" xmlns:xlink="http://www.w3.org/1999/xlink" version="1.1" width="283" height="283" enable-background="new 0 0 425.197 425.197" xml:space="preserve" style=""><rect id="backgroundrect" width="100%" height="100%" x="0" y="0" fill="none" stroke="none"/>

<g class="currentLayer" style=""><title>Layer 1</title><g id="svg_1" class="">
	<path fill="#E95420" d="M283.46401086425783,141.7279803466797 c0,78.279 -63.45,141.735 -141.729,141.735 c-78.279,0 -141.735,-63.456 -141.735,-141.735 c0,-78.274 63.457,-141.728 141.735,-141.728 C220.01401086425778,-0.000019653320308066213 283.46401086425783,63.45298034667968 283.46401086425783,141.7279803466797 z" id="svg_2"/>
	<path fill="#FFFFFF" d="M68.17601086425782,141.7279803466797 c0,10.064 -8.159,18.225 -18.23,18.225 c-10.059,0 -18.218,-8.16 -18.218,-18.225 c0,-10.06 8.159,-18.219 18.218,-18.219 C60.0170108642578,123.50898034667969 68.17601086425782,131.66798034667968 68.17601086425782,141.7279803466797 zM171.85001086425783,230.3339803466797 c5.033,8.709 16.173,11.696 24.889,6.67 c8.715,-5.033 11.701,-16.179 6.6690000000000005,-24.895 c-5.032,-8.715 -16.173,-11.695 -24.888,-6.663 C169.8040108642578,210.4789803466797 166.81801086425781,221.61898034667968 171.85001086425783,230.3339803466797 zM203.4070108642578,71.35198034667968 c5.032,-8.717 2.052,-19.86 -6.6690000000000005,-24.887 c-8.71,-5.032 -19.855,-2.046 -24.889,6.667 c-5.032,8.715 -2.046,19.857 6.67,24.889 C187.2350108642578,83.05298034667967 198.3810108642578,80.06698034667968 203.4070108642578,71.35198034667968 zM141.73501086425782,89.76498034667969 c27.153,0 49.434,20.814 51.761,47.364 l26.372,-0.41600000000000004 c-1.252,-19.727 -9.809,-37.469 -22.995,-50.551 c-6.98,2.693 -15.079,2.327 -22.066,-1.71 c-6.992,-4.037 -11.359,-10.871 -12.514,-18.275 c-6.554,-1.78 -13.448,-2.733 -20.558,-2.733 c-12.471,0 -24.259,2.916 -34.727,8.103 l12.832,23.043 C126.49001086425781,91.49998034667968 133.9170108642578,89.76498034667969 141.73501086425782,89.76498034667969 zM89.76601086425782,141.7279803466797 c0,-17.577 8.734,-33.121 22.097,-42.52 l-13.54,-22.634 c-15.684000000000001,10.474 -27.367,26.451 -32.296,45.183 c5.833,4.697 9.57,11.897 9.57,19.972 c0,8.08 -3.738,15.28 -9.57,19.978 c4.929,18.731 16.612000000000002,34.708 32.296,45.188 l13.54,-22.634 C98.5000108642578,174.8549803466797 89.76601086425782,159.31698034667968 89.76601086425782,141.7279803466797 zM141.73501086425782,193.70098034667967 c-7.817,0 -15.244,-1.734 -21.895,-4.83 l-12.832,23.043 c10.468,5.191 22.255,8.104 34.727,8.104 c7.109,0 14.004,-0.9460000000000001 20.558,-2.729 c1.154,-7.409 5.521,-14.243 12.514,-18.273 c6.987,-4.037 15.086,-4.404 22.066,-1.711 c13.187,-13.088 21.743,-30.83 22.995,-50.557 l-26.372,-0.40900000000000003 C191.16801086425784,172.88198034667968 168.8880108642578,193.70098034667967 141.73501086425782,193.70098034667967 z" id="svg_3"/>
</g></g></svg>